<svg width="397" height="72" viewBox="0 0 397 72" fill="none" xmlns="http://www.w3.org/2000/svg">
<path d="M25.648 71.344C21.8933 71.344 18.2667 69.7227 14.768 66.48C14.256 66.3093 13.8293 65.9253 13.488 65.328C13.1467 64.816 12.8053 64.3893 12.464 64.048C11.8667 63.8773 11.4827 63.6213 11.312 63.28C11.1413 62.9387 10.9707 62.512 10.8 62C10.8 61.9147 10.7147 61.7867 10.544 61.616C10.4587 61.5307 10.3733 61.4453 10.288 61.36C10.2027 61.2747 10.1173 61.1893 10.032 61.104C9.94667 61.104 9.904 61.104 9.904 61.104C9.98933 61.0187 10.032 60.976 10.032 60.976C9.69067 60.2933 9.47733 59.824 9.392 59.568C9.30667 59.2267 8.96533 58.8 8.368 58.288C8.19733 58.1173 8.02667 57.8613 7.856 57.52C7.77067 57.0933 7.68533 56.752 7.6 56.496C6.66133 54.2773 5.808 52.016 5.04 49.712C4.35733 47.3227 4.016 44.8907 4.016 42.416C4.016 41.5627 4.272 40.9227 4.784 40.496C5.296 40.0693 5.85067 39.856 6.448 39.856C7.55733 39.856 8.28267 40.4107 8.624 41.52C8.79467 41.8613 8.96533 42.2453 9.136 42.672C9.392 43.0133 9.52 43.3547 9.52 43.696V44.976C9.52 45.488 9.648 45.616 9.904 45.36C10.2453 45.0187 10.4587 45.0613 10.544 45.488C10.7147 46.0853 10.8427 46.4693 10.928 46.64C11.0133 46.7253 11.3547 46.9387 11.952 47.28C12.1227 47.6213 12.336 47.9627 12.592 48.304C12.848 48.6453 13.104 48.9867 13.36 49.328V49.584C13.36 50.096 13.5307 50.48 13.872 50.736C14.2133 50.9067 14.5973 51.12 15.024 51.376L16.688 53.168C16.6027 53.3387 16.56 53.5093 16.56 53.68C16.56 54.192 16.816 54.5333 17.328 54.704C17.9253 54.8747 18.4373 55.0453 18.864 55.216C18.9493 55.3013 19.4187 55.728 20.272 56.496C21.2107 57.1787 21.8507 57.6053 22.192 57.776C22.6187 58.032 23.088 58.3307 23.6 58.672C24.112 58.928 24.624 59.1413 25.136 59.312C25.3067 59.312 25.4773 59.3973 25.648 59.568C27.184 60.1653 28.592 60.464 29.872 60.464C31.0667 60.464 32.432 60.208 33.968 59.696C34.224 59.6107 34.4373 59.568 34.608 59.568C34.864 59.4827 35.0347 59.44 35.12 59.44C35.376 59.44 35.504 59.5253 35.504 59.696C35.504 60.1227 35.12 60.5493 34.352 60.976C34.352 61.1467 34.224 61.232 33.968 61.232C33.6267 61.3173 33.2853 61.4453 32.944 61.616C32.6027 61.7867 32.2613 61.8293 31.92 61.744C31.4933 61.744 31.152 61.7013 30.896 61.616C30.64 61.5307 30.2987 61.6587 29.872 62C28.7627 61.9147 27.5253 61.6587 26.16 61.232C24.7947 60.8053 23.6427 60.336 22.704 59.824C22.6187 59.2267 22.2347 58.928 21.552 58.928C20.8693 58.8427 20.3147 58.6293 19.888 58.288C19.5467 57.8613 19.248 57.392 18.992 56.88C18.8213 56.368 18.3947 56.3253 17.712 56.752C17.3707 56.4107 17.072 56.1547 16.816 55.984C16.56 55.728 16.176 55.6 15.664 55.6C15.4933 55.4293 15.2373 55.2587 14.896 55.088C14.64 54.9173 14.5547 54.6613 14.64 54.32C14.2987 54.064 13.616 53.6373 12.592 53.04C11.6533 52.3573 11.0987 51.9307 10.928 51.76C10.16 50.9067 9.30667 50.1813 8.368 49.584L7.984 49.328C9.09333 52.656 10.416 55.8987 11.952 59.056C13.5733 62.2133 15.92 64.7733 18.992 66.736C20.4427 67.5893 21.7653 68.272 22.96 68.784C24.24 69.3813 25.4773 69.68 26.672 69.68C28.8907 69.68 31.2373 68.5707 33.712 66.352C35.8453 64.3893 37.7653 62.0427 39.472 59.312C41.1787 56.496 42.7147 53.552 44.08 50.48C45.4453 47.408 46.64 44.5493 47.664 41.904C47.8347 41.7333 47.9627 41.6053 48.048 41.52C48.1333 41.4347 48.2187 41.3493 48.304 41.264C48.56 40.6667 48.7307 39.984 48.816 39.216C48.9867 38.3627 49.1573 37.6373 49.328 37.04C49.7547 36.528 50.1387 35.9307 50.48 35.248C50.9067 34.48 51.12 33.7547 51.12 33.072L51.376 32.432C51.5467 32.3467 51.504 32.2187 51.248 32.048C50.992 31.8773 51.1627 31.7493 51.76 31.664C52.3573 30.7253 52.6987 29.7867 52.784 28.848C52.9547 27.824 53.2107 27.0987 53.552 26.672C53.808 26.2453 54.064 25.8613 54.32 25.52C54.576 25.1787 54.6187 24.752 54.448 24.24C54.5333 23.8987 54.7893 23.088 55.216 21.808C55.728 20.4427 56.2827 18.9493 56.88 17.328C57.4773 15.7067 57.9893 14.2987 58.416 13.104C58.8427 11.824 59.056 11.0987 59.056 10.928L60.464 7.216C58.0747 7.30133 55.6 7.42933 53.04 7.6C50.5653 7.77067 48.1333 8.15467 45.744 8.752C45.8293 8.66666 45.7867 8.58133 45.616 8.496C45.4453 8.32533 45.3173 8.24 45.232 8.24L45.104 8.112C44.7627 8.02666 44.6773 8.112 44.848 8.368C45.104 8.53866 45.0613 8.70933 44.72 8.88C43.952 8.96533 43.056 9.17866 42.032 9.52C41.0933 9.776 40.24 9.904 39.472 9.904C39.1307 9.98933 38.7467 10.032 38.32 10.032C37.8933 9.94667 37.4667 9.904 37.04 9.904C35.76 9.98933 34.48 10.3307 33.2 10.928C32.0053 11.5253 30.768 12.0373 29.488 12.464L27.184 13.104C26.2453 13.5307 25.2213 13.8293 24.112 14C23.0027 14.1707 21.9787 14.4693 21.04 14.896L21.168 15.024C20.8267 15.28 20.4 15.4507 19.888 15.536C19.376 15.6213 18.9067 15.7493 18.48 15.92C17.456 16.2613 16.3893 16.688 15.28 17.2C14.256 17.6267 13.1893 18.0107 12.08 18.352C11.4827 18.5227 10.8853 18.6933 10.288 18.864C9.776 18.9493 9.17867 19.12 8.496 19.376C8.15467 19.4613 7.856 19.5467 7.6 19.632C7.344 19.632 7.04533 19.632 6.704 19.632C5.936 19.632 5.25333 19.4613 4.656 19.12C4.31467 18.9493 3.80267 18.48 3.12 17.712C2.52267 16.8587 2.01067 16.0053 1.584 15.152C1.15733 14.2133 0.986667 13.5307 1.072 13.104C1.15733 12.848 1.712 12.5493 2.736 12.208C3.76 11.7813 4.95467 11.3973 6.32 11.056C7.68533 10.6293 8.92267 10.288 10.032 10.032C11.2267 9.69066 11.9947 9.47733 12.336 9.392C12.5067 9.30666 12.976 9.22133 13.744 9.136C14.512 8.96533 14.9387 9.05066 15.024 9.392C15.1093 9.56267 15.024 9.81866 14.768 10.16C14.512 10.416 14.2987 10.6293 14.128 10.8C14.128 10.8853 14 11.056 13.744 11.312C13.5733 11.568 13.5733 11.6533 13.744 11.568L18.224 10.416C18.9067 10.2453 19.7173 10.2027 20.656 10.288C21.68 10.288 22.448 10.1173 22.96 9.776C23.1307 9.60533 23.216 9.43466 23.216 9.264C23.3013 9.09333 23.472 9.008 23.728 9.008C24.3253 8.83733 25.3067 8.66667 26.672 8.496C28.1227 8.32533 29.0187 8.06933 29.36 7.728C30.0427 7.55733 30.768 7.472 31.536 7.472C32.304 7.38666 32.9867 7.17333 33.584 6.832C33.84 6.74666 34.6507 6.576 36.016 6.32C37.4667 6.064 39.088 5.808 40.88 5.552C42.7573 5.21066 44.4213 4.95466 45.872 4.784C47.3227 4.528 48.176 4.4 48.432 4.4H48.56C48.9013 4.4 49.2427 4.35733 49.584 4.272C49.9253 4.18666 50.2667 4.144 50.608 4.144C51.2907 4.144 51.632 4.44266 51.632 5.04C51.7173 5.12533 51.9307 5.168 52.272 5.168C53.04 5.168 53.6373 4.95466 54.064 4.528C54.4053 4.44266 54.6613 4.31466 54.832 4.144C55.088 3.97333 55.3867 3.84533 55.728 3.76C56.6667 3.58933 57.648 3.54666 58.672 3.632C59.7813 3.632 60.7627 3.632 61.616 3.632C62.2133 2.352 62.8533 1.49866 63.536 1.072C64.2187 0.559998 65.2427 0.303997 66.608 0.303997C67.5467 0.303997 68.144 0.773331 68.4 1.712C68.656 2.56533 68.784 3.33333 68.784 4.016C69.2107 4.016 69.7653 4.016 70.448 4.016C71.1307 3.93066 71.856 3.888 72.624 3.888C73.392 3.888 74.1173 3.93066 74.8 4.016C75.568 4.10133 76.1653 4.22933 76.592 4.4C76.6773 4.144 76.8907 4.05866 77.232 4.144C77.6587 4.144 77.9573 4.18666 78.128 4.272C78.8107 4.61333 79.536 4.784 80.304 4.784C81.1573 4.69866 81.968 4.82666 82.736 5.168C83.504 5.424 84.2293 5.72267 84.912 6.064C85.5947 6.40533 86.32 6.704 87.088 6.96C87.7707 7.13066 88.2827 7.38666 88.624 7.728C89.0507 8.06933 89.5627 8.45333 90.16 8.88C90.8427 9.392 91.2693 9.86133 91.44 10.288C91.44 10.288 91.4827 10.4587 91.568 10.8C91.6533 11.056 91.568 11.1413 91.312 11.056C91.2267 11.056 91.0987 11.056 90.928 11.056C90.8427 10.9707 90.7573 10.9707 90.672 11.056C90.672 11.3973 90.8 11.696 91.056 11.952C91.2267 12.0373 91.3973 12.0373 91.568 11.952C91.824 11.8667 91.9947 11.7813 92.08 11.696C92.4213 11.696 92.592 11.8667 92.592 12.208C92.6773 12.5493 92.7627 12.8907 92.848 13.232C93.104 14.256 93.232 15.28 93.232 16.304C93.232 17.4133 92.9333 18.6507 92.336 20.016C91.824 21.3813 91.0987 22.576 90.16 23.6C89.2213 24.5387 88.112 25.008 86.832 25.008C86.4053 25.008 86.064 24.9653 85.808 24.88C84.8693 24.624 84.4 24.368 84.4 24.112C84.4 23.856 84.8267 23.4293 85.68 22.832C86.2773 22.4053 86.7893 21.936 87.216 21.424C87.6427 20.8267 88.0267 20.2293 88.368 19.632C88.9653 19.2053 89.4347 18.352 89.776 17.072C90.1173 15.792 90.288 14.5973 90.288 13.488C90.288 12.6347 90.16 11.952 89.904 11.44C89.8187 11.44 89.4347 10.9707 88.752 10.032C88.1547 9.09333 87.4293 8.58133 86.576 8.496C86.1493 8.32533 85.68 8.15466 85.168 7.984C84.7413 7.81333 84.3147 7.68533 83.888 7.6C83.5467 7.25866 82.864 7.00266 81.84 6.832C80.9013 6.66133 79.92 6.53333 78.896 6.448C77.872 6.36266 77.104 6.32 76.592 6.32C76.1653 6.32 75.3973 6.36266 74.288 6.448C73.1787 6.448 72.0693 6.49066 70.96 6.576C69.8507 6.576 69.0827 6.576 68.656 6.576C67.888 8.79467 66.5653 10.1173 64.688 10.544C64.6027 10.8 64.2613 11.696 63.664 13.232C63.0667 14.768 62.4267 16.4747 61.744 18.352C61.0613 20.144 60.4213 21.7653 59.824 23.216C59.312 24.5813 59.0133 25.3493 58.928 25.52C58.672 25.8613 58.416 26.2027 58.16 26.544C57.904 26.8853 57.7333 27.2693 57.648 27.696C57.5627 28.5493 57.1787 29.744 56.496 31.28C55.8987 32.816 55.216 34.352 54.448 35.888C53.7653 37.3387 53.2107 38.5333 52.784 39.472C52.272 39.8133 51.8453 40.112 51.504 40.368C51.1627 40.5387 51.248 40.9227 51.76 41.52C51.504 42.1173 51.248 42.416 50.992 42.416C50.736 42.3307 50.3947 42.2453 49.968 42.16C50.0533 42.5867 50.1813 42.8853 50.352 43.056C50.5227 43.1413 50.6507 43.3973 50.736 43.824C50.0533 45.36 49.2 47.2373 48.176 49.456C47.152 51.5893 46.128 53.296 45.104 54.576C44.5067 54.832 44.0373 55.088 43.696 55.344C43.3547 55.6 43.3547 56.112 43.696 56.88C43.5253 57.0507 43.3973 57.264 43.312 57.52C43.2267 57.776 43.1413 58.032 43.056 58.288L42.032 59.824C41.6907 60.08 41.3493 60.3787 41.008 60.72C40.6667 60.976 40.496 61.4027 40.496 62C40.1547 62.512 39.856 62.896 39.6 63.152C39.088 63.3227 38.6613 63.536 38.32 63.792C37.9787 64.048 37.808 64.5173 37.808 65.2C36.1013 67.0773 34.1813 68.5707 32.048 69.68C30 70.7893 27.8667 71.344 25.648 71.344ZM108.738 65.968C108.482 65.968 108.055 65.9253 107.458 65.84C106.946 65.84 106.647 65.7973 106.562 65.712C106.477 65.5413 106.562 65.3707 106.818 65.2C107.159 65.1147 107.159 65.0293 106.818 64.944C106.477 64.8587 106.221 64.688 106.05 64.432C105.879 64.2613 105.581 64.176 105.154 64.176C104.727 64.176 104.13 64.3467 103.362 64.688C102.594 65.0293 102.082 65.1573 101.826 65.072C100.034 64.6453 98.2847 64.048 96.578 63.28C94.9567 62.5973 93.4207 61.7013 91.97 60.592C91.7993 60.4213 91.6713 60.1227 91.586 59.696C91.5007 59.2693 91.202 59.0133 90.69 58.928C90.0927 58.8427 89.6233 58.544 89.282 58.032C88.9407 57.4347 88.514 56.9227 88.002 56.496C87.4047 55.984 86.978 55.3867 86.722 54.704C86.5513 53.936 86.3807 53.2107 86.21 52.528C85.8687 51.5893 85.6553 50.736 85.57 49.968C85.57 49.2 85.57 48.304 85.57 47.28C85.57 46.5973 85.698 45.36 85.954 43.568C86.2953 41.776 86.466 40.5387 86.466 39.856V39.728C87.0633 38.3627 87.4047 37.424 87.49 36.912C87.6607 36.4 87.7887 36.016 87.874 35.76C87.9593 35.4187 88.2153 34.9493 88.642 34.352C89.0687 33.7547 89.8367 32.688 90.946 31.152C91.458 30.4693 91.7567 30.0853 91.842 30C92.0127 29.9147 92.2687 29.7013 92.61 29.36C93.122 28.6773 93.7193 27.8667 94.402 26.928C95.0847 25.9893 95.7247 25.264 96.322 24.752C97.2607 23.984 98.37 23.1733 99.65 22.32C100.93 21.3813 102.082 20.6133 103.106 20.016C103.447 19.76 103.746 19.632 104.002 19.632C104.258 19.5467 104.557 19.4613 104.898 19.376C105.154 19.2907 105.709 18.992 106.562 18.48C107.415 17.8827 108.269 17.328 109.122 16.816C110.061 16.304 110.615 16.0907 110.786 16.176C110.871 16.176 110.914 16.2187 110.914 16.304C110.999 16.304 111.085 16.304 111.17 16.304C111.341 16.304 111.554 16.2187 111.81 16.048C112.066 15.792 112.279 15.6213 112.45 15.536C113.389 14.9387 114.37 14.64 115.394 14.64C116.162 14.5547 116.802 14.4267 117.314 14.256C117.826 14.0853 118.381 13.9147 118.978 13.744C119.49 13.5733 120.343 13.36 121.538 13.104C122.733 12.848 123.842 12.72 124.866 12.72C125.463 12.72 125.933 12.8053 126.274 12.976C126.786 13.232 127.127 13.36 127.298 13.36C127.469 13.36 127.639 13.36 127.81 13.36C127.981 13.2747 128.194 13.1893 128.45 13.104C128.706 13.0187 129.005 12.976 129.346 12.976C129.517 12.976 129.645 13.0613 129.73 13.232C129.901 13.3173 130.157 13.5307 130.498 13.872C130.583 13.9573 130.754 14 131.01 14C131.181 14 131.351 13.9573 131.522 13.872C131.778 13.7867 131.991 13.744 132.162 13.744C132.589 13.744 132.887 13.9147 133.058 14.256C133.314 14.512 133.613 14.6827 133.954 14.768C134.381 14.8533 134.765 14.9387 135.106 15.024C135.447 15.024 135.789 15.1093 136.13 15.28C136.898 15.6213 137.709 16.2187 138.562 17.072C139.501 17.84 140.055 18.6933 140.226 19.632C140.226 19.8027 140.226 20.0587 140.226 20.4C140.226 20.656 140.055 20.656 139.714 20.4C138.519 19.2907 137.367 18.352 136.258 17.584C135.234 16.7307 133.826 16.304 132.034 16.304C130.413 16.304 128.407 16.4747 126.018 16.816C123.629 17.1573 121.325 17.6693 119.106 18.352C116.887 18.9493 115.138 19.6747 113.858 20.528C113.431 20.8693 113.133 21.1253 112.962 21.296C112.791 21.3813 112.365 21.424 111.682 21.424C110.829 21.424 109.975 21.7653 109.122 22.448C108.354 23.0453 107.586 23.5573 106.818 23.984C106.477 24.1547 106.05 24.2827 105.538 24.368C105.026 24.4533 104.642 24.624 104.386 24.88C104.215 25.0507 104.13 25.1787 104.13 25.264C104.13 25.3493 104.045 25.4773 103.874 25.648L103.746 25.776C102.722 26.8 101.698 27.568 100.674 28.08C99.7353 28.592 98.6687 29.3173 97.474 30.256C97.3887 30.256 97.1327 30.5973 96.706 31.28C96.2793 31.8773 95.8527 32.4747 95.426 33.072C94.9993 33.6693 94.7007 34.0107 94.53 34.096C93.8473 34.2667 93.25 34.736 92.738 35.504C92.226 36.1867 91.842 36.784 91.586 37.296C91.33 37.6373 90.9887 38.064 90.562 38.576C90.2207 39.0027 89.922 39.4293 89.666 39.856C89.0687 40.9653 88.642 42.16 88.386 43.44C88.13 44.72 88.002 46.0427 88.002 47.408C88.002 48.0053 88.002 48.6453 88.002 49.328C88.0873 50.0107 88.1727 50.6933 88.258 51.376C88.3433 51.9733 88.386 52.4 88.386 52.656C88.386 52.8267 88.5993 53.1253 89.026 53.552C89.4527 54.064 89.794 54.6187 90.05 55.216C90.3913 55.728 90.7753 56.1973 91.202 56.624C91.2873 56.7093 91.33 56.8373 91.33 57.008C91.33 57.6907 91.4153 58.0747 91.586 58.16C91.842 58.2453 92.098 58.288 92.354 58.288C92.61 58.288 92.8233 58.5867 92.994 59.184L93.25 59.44C94.274 59.6107 95.2127 59.952 96.066 60.464C96.9193 60.8907 97.8153 61.232 98.754 61.488C99.3513 61.5733 99.9487 61.7013 100.546 61.872C101.229 61.9573 101.826 62.0853 102.338 62.256C102.594 62.3413 102.807 62.4693 102.978 62.64C103.234 62.896 103.405 63.0667 103.49 63.152H103.618C103.789 63.152 103.917 63.0667 104.002 62.896C104.173 62.7253 104.386 62.64 104.642 62.64C104.898 62.64 105.239 62.5973 105.666 62.512C106.093 62.512 106.391 62.5973 106.562 62.768C106.989 63.024 107.373 63.152 107.714 63.152C108.055 63.152 108.397 63.0667 108.738 62.896C108.909 62.8107 109.335 62.768 110.018 62.768C110.786 62.768 111.213 62.768 111.298 62.768C111.469 62.8533 111.682 62.9813 111.938 63.152C112.279 63.3227 112.578 63.3653 112.834 63.28C113.005 63.1093 113.047 62.9813 112.962 62.896C112.962 62.8107 113.133 62.7253 113.474 62.64L115.906 62.384C116.077 62.2987 116.247 62.256 116.418 62.256C117.186 62.1707 118.082 62 119.106 61.744C120.215 61.4027 121.069 61.1893 121.666 61.104C122.69 61.104 123.757 60.7627 124.866 60.08C126.146 59.3973 127.469 58.8 128.834 58.288C130.199 57.6907 131.565 57.136 132.93 56.624C133.869 56.2827 134.679 55.856 135.362 55.344C136.045 54.832 136.727 54.32 137.41 53.808C138.093 53.3813 138.733 52.9547 139.33 52.528C140.013 52.1013 140.61 51.6747 141.122 51.248C141.378 50.992 141.591 50.6933 141.762 50.352C141.933 50.0107 142.189 49.7547 142.53 49.584C144.749 48.304 146.541 46.8533 147.906 45.232C149.271 43.6107 150.893 41.9893 152.77 40.368C153.197 39.9413 153.495 39.6 153.666 39.344C153.837 39.088 154.05 38.7467 154.306 38.32C154.903 37.3813 155.671 36.4427 156.61 35.504C157.549 34.48 158.317 33.2853 158.914 31.92C159.17 31.3227 159.554 30.9387 160.066 30.768C160.578 30.512 160.877 30.1707 160.962 29.744C160.962 29.744 160.834 29.4027 160.578 28.72C160.407 27.952 160.535 27.44 160.962 27.184C161.389 26.928 161.602 26.6293 161.602 26.288C161.602 25.776 161.346 25.3067 160.834 24.88C160.407 24.368 160.194 23.9413 160.194 23.6C160.279 21.3813 160.109 19.632 159.682 18.352C159.341 16.9867 158.701 15.7493 157.762 14.64C156.823 13.5307 155.629 12.2933 154.178 10.928C152.557 9.392 150.338 8.28266 147.522 7.6C144.791 6.832 142.317 6.32 140.098 6.064C139.586 6.064 139.031 5.936 138.434 5.68C137.922 5.424 137.41 5.38133 136.898 5.552C136.727 5.63733 136.301 5.68 135.618 5.68C135.021 5.68 134.338 5.68 133.57 5.68C132.802 5.59466 132.333 5.50933 132.162 5.424C131.309 5.25333 130.541 5.296 129.858 5.552C129.175 5.72267 128.45 5.808 127.682 5.808C127.17 5.808 126.786 5.76533 126.53 5.68C126.274 5.59466 126.018 5.552 125.762 5.552C125.421 5.552 125.122 5.63733 124.866 5.808C124.695 5.89333 124.397 6.02133 123.97 6.192C121.581 7.04533 119.021 7.68533 116.29 8.112C116.205 8.112 115.565 8.28266 114.37 8.624C113.175 8.96533 111.981 9.34933 110.786 9.776C109.591 10.1173 108.866 10.3307 108.61 10.416C107.757 10.7573 106.946 11.056 106.178 11.312C105.41 11.568 104.685 11.952 104.002 12.464C103.831 12.5493 103.618 12.6773 103.362 12.848C103.106 13.0187 102.85 13.104 102.594 13.104C101.997 13.1893 101.485 13.4027 101.058 13.744C100.717 14 100.333 14.256 99.906 14.512C99.5647 14.768 99.0953 14.9387 98.498 15.024C97.986 15.1093 97.5593 15.28 97.218 15.536C97.0473 15.6213 96.962 15.8773 96.962 16.304C97.0473 16.7307 96.962 16.9867 96.706 17.072C96.3647 17.2427 95.938 17.3707 95.426 17.456C94.9993 17.456 94.5727 17.4987 94.146 17.584C93.5487 17.6693 92.9513 18.096 92.354 18.864C91.7567 19.5467 91.2447 20.1013 90.818 20.528C90.306 20.8693 89.6233 21.5093 88.77 22.448C87.9167 23.3013 87.234 23.8987 86.722 24.24C86.2953 24.496 85.8687 24.6667 85.442 24.752C85.0153 24.8373 84.7593 25.264 84.674 26.032L83.01 27.568C82.4127 27.6533 82.0287 27.9093 81.858 28.336C81.6873 28.6773 81.3887 29.0187 80.962 29.36C80.2793 29.872 79.8527 30.256 79.682 30.512C79.5967 30.6827 79.2127 31.0667 78.53 31.664C77.9327 32.2613 77.378 32.56 76.866 32.56C76.61 32.56 76.482 32.432 76.482 32.176C76.482 31.5787 76.866 30.7253 77.634 29.616C78.402 29.1893 78.9567 28.592 79.298 27.824C79.6393 27.056 80.1513 26.416 80.834 25.904C81.5167 25.4773 82.0287 25.008 82.37 24.496C82.7967 23.984 83.2233 23.4293 83.65 22.832C83.8207 22.6613 83.9487 22.576 84.034 22.576C84.7167 22.064 85.2713 21.5093 85.698 20.912C86.21 20.2293 86.85 19.7173 87.618 19.376C88.386 19.0347 89.026 18.608 89.538 18.096C90.05 17.4987 90.6047 16.9867 91.202 16.56C95.3833 13.6587 99.9487 11.056 104.898 8.752C109.847 6.36266 114.797 4.86933 119.746 4.272C120.429 4.18666 121.026 4.10133 121.538 4.016C122.135 3.84533 122.733 3.71733 123.33 3.632C123.586 3.54666 124.141 3.46133 124.994 3.376C125.933 3.20533 126.829 3.07733 127.682 2.992C128.621 2.82133 129.175 2.77866 129.346 2.864C129.602 2.864 129.858 2.90666 130.114 2.992C130.37 2.992 130.583 2.992 130.754 2.992C131.351 2.992 131.821 2.94933 132.162 2.864C132.589 2.77866 133.101 2.736 133.698 2.736C137.367 2.82133 140.823 3.29066 144.066 4.144C147.309 4.99733 150.466 6.40533 153.538 8.368C153.965 8.70933 154.306 9.05066 154.562 9.392C154.818 9.648 155.202 9.86133 155.714 10.032C156.141 10.288 156.567 10.672 156.994 11.184C157.591 12.0373 158.274 12.8907 159.042 13.744C159.81 14.512 160.45 15.3653 160.962 16.304C161.901 18.0107 162.583 19.8027 163.01 21.68C163.522 23.5573 163.778 25.4347 163.778 27.312C163.778 33.8827 161.602 39.472 157.25 44.08C156.909 44.4213 156.354 44.6347 155.586 44.72C154.903 44.72 154.477 44.8053 154.306 44.976C154.221 45.0613 154.349 45.3173 154.69 45.744C155.031 46.1707 155.117 46.4693 154.946 46.64C153.751 47.8347 152.514 48.944 151.234 49.968C151.149 50.0533 151.063 49.9253 150.978 49.584C150.893 49.1573 150.722 48.9013 150.466 48.816C150.21 48.6453 150.039 48.9013 149.954 49.584C149.954 50.2667 149.869 50.6933 149.698 50.864L148.546 49.584C148.375 49.6693 148.375 50.096 148.546 50.864C148.717 51.632 148.717 52.1013 148.546 52.272C146.669 53.6373 144.749 54.9173 142.786 56.112C140.823 57.3067 138.733 58.416 136.514 59.44C132.077 61.5733 127.426 63.1947 122.562 64.304C117.783 65.4987 113.175 66.0533 108.738 65.968ZM194.118 71.216C193.521 71.216 193.222 70.576 193.222 69.296C193.222 68.4427 193.393 67.376 193.734 66.096C194.161 64.9013 194.673 63.4933 195.27 61.872C195.953 61.2747 196.294 60.5067 196.294 59.568C196.465 59.6533 196.55 59.6533 196.55 59.568C196.635 59.3973 196.678 59.312 196.678 59.312C196.849 59.056 196.934 58.8 196.934 58.544C196.934 58.2027 196.977 57.904 197.062 57.648V57.392C196.721 56.5387 196.55 55.8133 196.55 55.216L196.294 55.088C196.123 54.576 195.995 54.0213 195.91 53.424C195.91 52.8267 195.953 52.272 196.038 51.76C196.123 51.248 196.081 50.992 195.91 50.992C195.825 50.9067 195.782 50.7787 195.782 50.608C195.782 50.4373 195.782 50.3093 195.782 50.224C195.867 50.0533 195.953 49.7973 196.038 49.456C196.123 49.2853 196.251 48.9867 196.422 48.56C196.678 48.048 196.806 47.7493 196.806 47.664C196.806 47.4933 196.763 47.3653 196.678 47.28C196.593 47.1093 196.55 46.9813 196.55 46.896L196.934 46.384V45.488C197.019 45.3173 197.062 45.104 197.062 44.848C197.147 44.6773 197.275 44.5493 197.446 44.464C197.617 44.2933 197.745 44.1653 197.83 44.08C198.001 43.9093 198.129 43.696 198.214 43.44C198.385 43.0987 198.513 42.8427 198.598 42.672C198.683 42.5013 198.769 42.3733 198.854 42.288C199.025 42.1173 199.153 41.904 199.238 41.648C199.409 41.392 199.537 41.1787 199.622 41.008C199.707 40.752 199.835 40.496 200.006 40.24L200.902 39.472C201.243 39.1307 201.585 38.96 201.926 38.96C202.267 38.96 202.481 39.3013 202.566 39.984L202.438 40.624L200.39 42.8C200.219 42.9707 200.134 43.184 200.134 43.44C200.049 43.5253 199.963 43.6107 199.878 43.696C199.878 43.7813 199.835 43.9093 199.75 44.08C199.75 44.2507 199.622 44.464 199.366 44.72L198.982 45.872C198.811 45.872 198.726 45.9573 198.726 46.128C198.641 46.2133 198.555 46.7253 198.47 47.664C198.47 48.5173 198.47 49.0293 198.47 49.2H198.854C198.854 49.2853 198.854 49.4133 198.854 49.584C198.939 49.6693 198.939 49.7973 198.854 49.968V50.736C198.854 50.9067 198.811 51.0773 198.726 51.248C198.726 51.248 198.683 51.2907 198.598 51.376C198.598 51.376 198.598 51.4187 198.598 51.504C198.598 51.5893 198.641 51.7173 198.726 51.888C198.811 51.9733 198.854 52.1013 198.854 52.272C198.854 52.3573 198.811 52.4427 198.726 52.528C198.726 52.528 198.726 52.5707 198.726 52.656C198.726 52.7413 198.769 52.8267 198.854 52.912C198.939 52.912 198.982 52.9547 198.982 53.04V53.168C199.665 51.888 200.305 50.5653 200.902 49.2C201.585 47.8347 202.267 46.4693 202.95 45.104C203.121 44.7627 203.291 44.6773 203.462 44.848C203.718 44.9333 203.889 44.8907 203.974 44.72C204.059 44.6347 204.102 44.4213 204.102 44.08C204.102 43.824 204.059 43.568 203.974 43.312C203.974 43.056 204.102 42.7573 204.358 42.416L206.15 39.216C208.625 34.7787 211.099 30.512 213.574 26.416C216.134 22.32 218.523 19.1627 220.742 16.944L221.126 16.688L221.51 16.048C221.51 16.048 221.595 16.0053 221.766 15.92C221.937 15.8347 222.065 15.8773 222.15 16.048C222.15 16.1333 222.065 16.304 221.894 16.56C221.809 16.816 221.766 16.9867 221.766 17.072C222.022 17.4987 222.321 17.5413 222.662 17.2C222.747 17.0293 222.747 16.6453 222.662 16.048C222.577 15.4507 222.577 15.152 222.662 15.152C222.833 15.0667 222.918 15.0667 222.918 15.152C223.003 15.2373 223.089 15.28 223.174 15.28C223.345 15.28 223.43 15.152 223.43 14.896C223.43 14.64 223.473 14.4693 223.558 14.384C224.497 14.0427 225.35 13.872 226.118 13.872C226.545 13.872 227.142 14.0853 227.91 14.512C228.763 14.9387 229.19 15.536 229.19 16.304C229.19 16.7307 228.977 17.2427 228.55 17.84C228.465 17.9253 228.379 18.096 228.294 18.352C228.209 18.5227 228.081 18.6933 227.91 18.864C227.825 18.9493 227.739 18.992 227.654 18.992C227.654 18.9067 227.569 18.9067 227.398 18.992C227.313 19.0773 227.185 19.12 227.014 19.12C226.929 19.0347 226.801 18.992 226.63 18.992C226.459 18.992 226.417 19.12 226.502 19.376C226.673 19.632 226.715 19.8027 226.63 19.888C226.545 19.9733 226.459 19.9733 226.374 19.888C226.289 19.8027 226.161 19.8453 225.99 20.016C225.905 20.1013 225.947 20.1867 226.118 20.272C226.374 20.272 226.417 20.3573 226.246 20.528C225.734 21.04 225.094 21.5947 224.326 22.192C223.643 22.704 222.961 23.216 222.278 23.728C222.193 23.8133 222.107 23.8133 222.022 23.728C221.937 23.5573 221.851 23.5147 221.766 23.6L220.87 24.88C220.017 25.7333 219.163 26.6293 218.31 27.568C217.457 28.5067 216.561 29.5733 215.622 30.768C215.366 31.28 215.067 31.7493 214.726 32.176C214.385 32.6027 213.915 32.7733 213.318 32.688C213.318 32.7733 213.403 32.9013 213.574 33.072C213.745 33.1573 213.745 33.328 213.574 33.584C212.123 35.632 210.673 37.7653 209.222 39.984C207.771 42.2027 206.406 44.5067 205.126 46.896C204.529 47.92 203.803 49.2427 202.95 50.864L201.798 53.168C201.713 53.424 201.585 53.552 201.414 53.552C201.329 53.4667 201.201 53.424 201.03 53.424C201.286 53.936 201.329 54.4907 201.158 55.088C201.243 55.088 201.286 55.1307 201.286 55.216C202.907 56.3253 204.059 57.0933 204.742 57.52C205.51 57.9467 206.79 58.3733 208.582 58.8C209.265 58.9707 209.947 59.184 210.63 59.44C211.313 59.6107 212.038 59.696 212.806 59.696C212.891 59.696 212.891 59.7387 212.806 59.824C212.806 59.9093 212.849 59.952 212.934 59.952C213.275 59.952 213.617 59.9947 213.958 60.08C214.299 60.08 214.641 60.08 214.982 60.08C215.067 60.08 215.11 60.08 215.11 60.08C215.195 59.9947 215.281 59.952 215.366 59.952C215.537 59.952 215.793 60.0373 216.134 60.208C216.731 60.208 217.371 60.208 218.054 60.208C218.822 60.208 219.505 60.1653 220.102 60.08C220.785 59.9947 221.425 59.9093 222.022 59.824C222.705 59.6533 223.345 59.5253 223.942 59.44C225.137 59.3547 226.289 59.1413 227.398 58.8C228.593 58.3733 229.745 57.9893 230.854 57.648C232.134 57.2213 233.499 56.752 234.95 56.24C236.486 55.6427 238.065 54.96 239.686 54.192C239.857 54.1067 239.942 54.32 239.942 54.832C240.027 55.2587 240.155 55.4293 240.326 55.344C240.497 55.2587 240.71 54.9173 240.966 54.32C241.307 53.7227 241.521 53.3813 241.606 53.296L242.758 51.76L243.782 50.608C243.953 50.352 244.123 50.0107 244.294 49.584C244.465 49.1573 244.593 48.816 244.678 48.56C244.934 47.8773 245.147 47.152 245.318 46.384C245.489 45.616 245.574 44.8053 245.574 43.952C245.574 43.5253 245.787 43.312 246.214 43.312C246.641 43.312 246.854 43.5253 246.854 43.952C246.854 44.3787 246.854 44.848 246.854 45.36C246.854 45.872 246.769 46.3413 246.598 46.768C246.598 46.8533 246.513 46.896 246.342 46.896C246.257 46.8107 246.214 46.8107 246.214 46.896C246.129 47.4933 246.043 48.1333 245.958 48.816C245.873 49.4133 245.659 50.0107 245.318 50.608L244.55 51.888C246.342 50.9493 248.049 49.968 249.67 48.944C251.377 47.8347 252.827 46.5973 254.022 45.232L255.174 43.952C255.259 43.7813 255.387 43.6533 255.558 43.568C255.729 43.4827 255.857 43.6107 255.942 43.952C255.686 44.208 255.643 44.5493 255.814 44.976C256.241 44.8907 256.497 44.5067 256.582 43.824C256.667 43.056 256.795 42.3733 256.966 41.776C257.734 40.8373 258.502 39.8133 259.27 38.704C259.355 38.6187 259.483 38.576 259.654 38.576C259.995 38.576 260.294 38.6187 260.55 38.704C260.806 38.7893 261.062 38.6613 261.318 38.32C261.147 37.8933 260.977 37.5947 260.806 37.424C260.635 37.168 260.678 36.8267 260.934 36.4L261.318 35.76C261.745 34.992 262.214 34.4373 262.726 34.096C263.238 33.7547 263.579 33.0293 263.75 31.92C265.371 29.0187 266.182 25.8613 266.182 22.448C266.182 18.5227 264.945 14.896 262.47 11.568C260.081 8.15466 256.411 6.02133 251.462 5.168C251.291 5.168 250.779 5.04 249.926 4.784C249.158 4.44266 248.689 4.272 248.518 4.272C248.347 4.272 248.177 4.272 248.006 4.272C247.835 4.18666 247.665 4.144 247.494 4.144C247.153 4.144 246.897 4.18666 246.726 4.272C246.555 4.272 246.171 4.18666 245.574 4.016C244.806 3.58933 243.825 3.33333 242.63 3.248C241.521 3.07733 240.881 2.94933 240.71 2.864L238.406 3.376C237.979 3.376 237.553 3.376 237.126 3.376C236.785 3.29066 236.443 3.248 236.102 3.248C234.139 3.248 232.518 3.41866 231.238 3.76C230.043 4.016 228.977 4.18666 228.038 4.272L222.79 4.784C222.278 4.528 221.809 4.61333 221.382 5.04H221.254C220.657 5.04 220.059 5.12533 219.462 5.296C218.95 5.38133 218.395 5.50933 217.798 5.68C217.457 5.76533 217.073 5.808 216.646 5.808C216.305 5.808 215.921 5.89333 215.494 6.064V6.192C215.153 6.27733 214.769 6.36266 214.342 6.448C214.001 6.448 213.617 6.53333 213.19 6.704H213.062C212.721 6.87467 212.379 7.04533 212.038 7.216C211.782 7.38666 211.441 7.42933 211.014 7.344C210.673 7.42933 210.289 7.51466 209.862 7.6C209.521 7.68533 209.137 7.81333 208.71 7.984H208.454C208.198 7.984 207.942 7.728 207.686 7.216C207.43 6.704 207.302 6.36266 207.302 6.192C207.217 6.704 207.089 7.25867 206.918 7.856C206.833 8.45333 206.534 8.752 206.022 8.752V8.88C205.425 8.96533 204.87 9.136 204.358 9.392C203.846 9.648 203.291 9.86133 202.694 10.032C202.353 10.1173 202.011 10.16 201.67 10.16C201.329 10.0747 200.945 10.032 200.518 10.032C200.347 10.032 200.177 10.0747 200.006 10.16C199.835 10.16 199.665 10.2027 199.494 10.288C199.238 10.3733 199.067 10.544 198.982 10.8C198.982 11.056 198.897 11.2693 198.726 11.44C198.385 11.7813 197.958 12.0373 197.446 12.208C196.934 12.3787 196.507 12.5493 196.166 12.72C195.995 12.8053 195.739 12.72 195.398 12.464C195.142 12.208 194.929 12.1653 194.758 12.336C194.673 12.4213 194.587 12.6347 194.502 12.976C194.502 13.3173 194.417 13.5307 194.246 13.616H194.118L191.046 15.024C190.619 15.1947 190.107 15.4507 189.51 15.792C188.913 16.1333 188.401 16.3467 187.974 16.432C187.889 16.432 187.846 16.2613 187.846 15.92C187.846 15.5787 187.761 15.4933 187.59 15.664C187.163 15.8347 186.694 16.304 186.182 17.072C185.755 17.7547 185.329 18.224 184.902 18.48C184.475 18.8213 184.049 18.992 183.622 18.992C183.195 18.992 182.811 19.1627 182.47 19.504C182.214 19.6747 181.958 20.0587 181.702 20.656C181.531 21.168 181.318 21.552 181.062 21.808L179.27 24.24C179.099 24.4107 178.929 24.5813 178.758 24.752C178.587 24.9227 178.502 25.136 178.502 25.392C177.99 26.2453 177.734 27.2267 177.734 28.336C177.734 30.2133 178.374 31.5787 179.654 32.432C181.019 33.2 182.513 33.7973 184.134 34.224H184.262C184.859 34.6507 185.414 34.8213 185.926 34.736C186.267 34.5653 186.566 34.48 186.822 34.48C187.163 34.48 187.462 34.6507 187.718 34.992L189.51 35.376C190.449 35.632 190.918 35.888 190.918 36.144C190.918 36.3147 190.705 36.4853 190.278 36.656C189.937 36.7413 189.553 36.784 189.126 36.784C187.675 36.784 185.883 36.4853 183.75 35.888C181.702 35.2907 179.867 34.352 178.246 33.072C176.625 31.7067 175.686 30.0427 175.43 28.08C175.43 27.9947 175.302 27.7813 175.046 27.44C174.875 27.0987 174.747 26.8 174.662 26.544C174.577 26.1173 174.491 25.7333 174.406 25.392C174.406 24.9653 174.406 24.5813 174.406 24.24C174.406 21.5093 175.473 18.992 177.606 16.688C178.033 16.2613 178.417 15.9627 178.758 15.792C179.099 15.6213 179.526 15.3653 180.038 15.024C180.465 14.6827 180.678 14.4267 180.678 14.256C180.678 14 180.934 13.7013 181.446 13.36C182.129 12.848 183.025 12.336 184.134 11.824C185.243 11.2267 186.139 10.7573 186.822 10.416V10.288H187.078C187.419 10.288 187.761 10.1173 188.102 9.776C189.638 9.008 191.259 8.32533 192.966 7.728C194.758 7.04533 196.55 6.40533 198.342 5.808C198.854 5.552 199.323 5.424 199.75 5.424C200.177 5.424 200.518 5.552 200.774 5.808C200.774 5.63733 200.774 5.50933 200.774 5.424C200.774 5.25333 200.817 5.12533 200.902 5.04V4.912C202.865 4.31467 204.827 3.71733 206.79 3.12C208.753 2.43733 210.673 2.096 212.55 2.096H212.678C213.19 2.096 213.574 2.01066 213.83 1.84L214.598 1.712H214.726C215.238 1.88266 215.707 1.79733 216.134 1.456C218.267 1.02933 220.315 0.773331 222.278 0.687996C224.241 0.602664 225.905 0.51733 227.27 0.431995C227.526 0.51733 227.782 0.559998 228.038 0.559998C228.294 0.474663 228.507 0.431995 228.678 0.431995L229.958 0.303997C230.214 0.303997 230.47 0.346663 230.726 0.431995C231.067 0.431995 231.366 0.389329 231.622 0.303997L238.79 0.175999H238.918C239.174 0.175999 239.387 0.303998 239.558 0.559998C239.814 0.730665 240.07 0.645331 240.326 0.303997C241.009 0.303997 242.033 0.431997 243.398 0.687996C244.849 0.943998 246.299 1.2 247.75 1.456C249.201 1.62666 250.267 1.79733 250.95 1.968C252.23 2.224 254.022 2.82133 256.326 3.76C258.715 4.61333 261.105 5.936 263.494 7.728C265.883 9.43466 267.803 11.7387 269.254 14.64C270.79 17.456 271.345 20.9973 270.918 25.264C270.833 26.8 270.491 28.2507 269.894 29.616C269.297 30.9813 268.657 32.3893 267.974 33.84L266.694 36.656C266.609 36.7413 266.481 36.8693 266.31 37.04C266.139 37.1253 265.969 37.2533 265.798 37.424C265.713 37.68 265.585 37.8933 265.414 38.064C265.243 38.1493 265.073 38.32 264.902 38.576C264.561 39.088 264.177 39.6 263.75 40.112C263.323 40.5387 262.897 41.0507 262.47 41.648L262.214 42.032C261.019 43.9093 259.526 45.616 257.734 47.152C255.942 48.6027 254.15 49.9253 252.358 51.12V51.248C252.187 51.3333 251.974 51.4613 251.718 51.632C251.547 51.7173 251.377 51.8453 251.206 52.016L251.078 52.144H250.95C250.779 52.2293 250.566 52.3147 250.31 52.4C250.054 52.4853 249.841 52.6987 249.67 53.04C249.329 53.296 248.987 53.424 248.646 53.424C247.537 54.0213 246.513 54.5333 245.574 54.96C244.635 55.3013 243.825 55.6427 243.142 55.984C243.142 56.1547 243.014 56.4107 242.758 56.752C242.502 57.0933 242.289 57.3493 242.118 57.52C240.667 58.7147 239.686 59.696 239.174 60.464C238.662 61.232 238.022 61.8293 237.254 62.256C237.169 62.3413 237.041 62.384 236.87 62.384C236.529 62.384 236.273 62.512 236.102 62.768C235.931 63.024 235.761 63.28 235.59 63.536C235.163 63.9627 234.31 64.3893 233.03 64.816C231.835 65.2427 230.939 65.6693 230.342 66.096C230.086 66.1813 229.787 66.2667 229.446 66.352C229.19 66.5227 229.062 66.608 229.062 66.608H228.422C228.337 66.608 228.166 66.6933 227.91 66.864C227.654 67.12 227.441 67.2907 227.27 67.376C227.099 67.4613 226.929 67.504 226.758 67.504C226.587 67.504 226.459 67.5893 226.374 67.76C225.947 67.76 225.478 67.8453 224.966 68.016C224.881 68.016 224.454 68.016 223.686 68.016C222.918 68.1013 222.449 68.1867 222.278 68.272C222.193 68.3573 221.894 68.4853 221.382 68.656C220.87 68.8267 220.529 68.912 220.358 68.912C220.273 68.912 220.187 68.8693 220.102 68.784C220.017 68.784 219.889 68.8267 219.718 68.912C219.633 69.0827 219.505 69.168 219.334 69.168C219.249 69.168 219.078 69.1253 218.822 69.04C218.651 69.04 218.481 69.04 218.31 69.04C218.225 68.9547 218.054 68.9973 217.798 69.168C217.627 69.3387 217.457 69.424 217.286 69.424C217.201 69.424 217.115 69.3813 217.03 69.296C217.03 69.296 216.987 69.296 216.902 69.296C216.731 69.296 216.561 69.3387 216.39 69.424C216.219 69.5093 216.049 69.552 215.878 69.552C215.281 69.552 214.726 69.5093 214.214 69.424C213.702 69.3387 213.19 69.296 212.678 69.296C212.593 69.296 212.337 69.168 211.91 68.912C211.569 68.656 211.355 68.528 211.27 68.528C210.673 68.528 210.075 68.4853 209.478 68.4C208.966 68.4 208.454 68.3573 207.942 68.272C207.857 68.272 207.771 68.1867 207.686 68.016C207.686 67.9307 207.601 67.888 207.43 67.888H207.174C207.089 67.888 206.875 67.8027 206.534 67.632C206.278 67.4613 206.107 67.3333 206.022 67.248L205.894 67.12C205.553 67.0347 205.339 66.9067 205.254 66.736C205.254 66.5653 205.169 66.48 204.998 66.48C204.913 66.48 204.87 66.48 204.87 66.48C204.87 66.5653 204.827 66.608 204.742 66.608C204.571 66.608 204.486 66.5227 204.486 66.352C204.23 66.1813 203.803 65.968 203.206 65.712C202.694 65.456 202.353 65.1573 202.182 64.816C201.841 64.7307 201.627 64.6453 201.542 64.56C201.542 64.4747 201.457 64.304 201.286 64.048L200.774 63.792L199.494 62.64C199.494 62.384 199.451 62.256 199.366 62.256L198.982 62C198.982 61.6587 198.854 61.488 198.598 61.488C198.427 60.976 198.342 60.72 198.342 60.72C197.574 62.4267 196.891 64.0907 196.294 65.712C195.782 67.3333 195.313 68.8267 194.886 70.192C194.715 70.8747 194.459 71.216 194.118 71.216ZM216.518 67.376C216.689 67.376 216.817 67.3333 216.902 67.248C217.073 67.1627 217.201 67.0773 217.286 66.992H217.798C218.395 66.6507 218.694 66.6507 218.694 66.992C218.694 67.3333 218.907 67.3333 219.334 66.992H219.974C220.059 66.736 220.187 66.608 220.358 66.608C220.614 66.608 220.785 66.5653 220.87 66.48C221.041 66.48 221.126 66.3947 221.126 66.224C221.211 66.1387 221.382 66.096 221.638 66.096C221.723 66.096 221.851 66.1813 222.022 66.352C222.363 66.352 223.046 66.1813 224.07 65.84C225.179 65.4987 225.777 65.328 225.862 65.328C225.947 65.4133 226.075 65.328 226.246 65.072C226.502 64.816 226.673 64.7307 226.758 64.816C226.758 64.7307 226.886 64.6453 227.142 64.56C227.398 64.56 227.569 64.5173 227.654 64.432C228.166 64.176 228.593 64.048 228.934 64.048C229.019 63.9627 229.233 63.792 229.574 63.536C230.001 63.3653 230.214 63.2373 230.214 63.152C230.385 62.9813 230.641 62.8533 230.982 62.768C231.323 62.6827 231.537 62.5973 231.622 62.512C231.878 62.512 232.731 62.0853 234.182 61.232C235.718 60.2933 237.126 59.184 238.406 57.904C236.955 58.416 235.547 58.8427 234.182 59.184C232.902 59.44 232.219 59.568 232.134 59.568C231.963 59.7387 231.835 59.824 231.75 59.824C231.409 59.6533 231.238 59.568 231.238 59.568L231.11 59.696C231.025 59.696 230.939 59.7387 230.854 59.824C230.769 59.9093 230.598 59.952 230.342 59.952C230.257 59.8667 230.001 59.952 229.574 60.208C229.233 60.3787 229.019 60.464 228.934 60.464C228.849 60.464 228.721 60.5067 228.55 60.592C228.465 60.592 228.337 60.5493 228.166 60.464C227.825 60.8053 226.929 61.0613 225.478 61.232C224.113 61.3173 223.217 61.36 222.79 61.36H222.662C222.577 61.2747 222.449 61.2747 222.278 61.36C222.193 61.36 222.065 61.36 221.894 61.36C221.894 61.4453 221.851 61.5307 221.766 61.616H220.998C220.657 61.616 220.315 61.6587 219.974 61.744C219.718 61.8293 219.419 61.872 219.078 61.872L218.95 61.744C218.865 61.744 218.737 61.7867 218.566 61.872C218.395 61.9573 218.267 62 218.182 62C218.097 62 218.011 61.9573 217.926 61.872C217.926 61.7013 217.841 61.616 217.67 61.616C217.585 61.616 217.457 61.7013 217.286 61.872C217.201 61.9573 217.115 61.9573 217.03 61.872H216.518C216.262 61.872 216.134 61.872 216.134 61.872C216.049 61.872 215.963 61.9147 215.878 62C215.878 62 215.835 62 215.75 62C215.75 62 215.665 61.9147 215.494 61.744C215.409 61.744 215.238 61.8293 214.982 62C214.811 62.0853 214.641 62.0853 214.47 62H214.214C214.043 61.8293 213.958 61.744 213.958 61.744C213.873 61.744 213.83 61.7867 213.83 61.872H212.678C212.166 61.872 211.654 61.7013 211.142 61.36C210.63 61.0187 210.161 60.848 209.734 60.848C209.649 60.848 209.563 60.8907 209.478 60.976C209.478 60.976 209.435 60.976 209.35 60.976C209.265 60.976 209.179 60.976 209.094 60.976C209.094 60.8907 209.051 60.848 208.966 60.848C208.966 60.848 208.923 60.848 208.838 60.848C208.838 60.848 208.795 60.8907 208.71 60.976C208.71 60.8907 208.667 60.848 208.582 60.848C208.582 60.7627 208.582 60.72 208.582 60.72L207.43 60.464C207.43 60.208 207.345 60.08 207.174 60.08C207.089 59.824 206.534 59.568 205.51 59.312C204.486 59.056 203.889 58.8853 203.718 58.8C203.633 58.8 203.462 58.7147 203.206 58.544C203.035 58.3733 202.95 58.3307 202.95 58.416H202.822C202.566 58.416 202.225 58.2453 201.798 57.904C201.457 57.4773 201.115 57.2213 200.774 57.136C200.518 56.88 200.39 56.624 200.39 56.368H200.262L200.134 56.496L199.878 57.264C199.878 57.3493 199.921 57.52 200.006 57.776C200.091 58.032 200.091 58.2453 200.006 58.416C200.177 58.5867 200.262 58.8 200.262 59.056C200.262 59.2267 200.347 59.3547 200.518 59.44C200.603 59.696 200.689 59.952 200.774 60.208C200.945 60.464 201.073 60.72 201.158 60.976C201.158 61.0613 201.371 61.232 201.798 61.488C202.225 61.6587 202.438 61.8293 202.438 62C202.523 62.0853 202.609 62.1707 202.694 62.256C202.865 62.3413 202.95 62.4693 202.95 62.64C203.035 62.7253 203.121 62.8533 203.206 63.024C203.291 63.1947 203.334 63.3653 203.334 63.536C203.505 63.536 203.633 63.5787 203.718 63.664C203.803 63.8347 204.017 64.0907 204.358 64.432C204.699 64.8587 204.955 65.1147 205.126 65.2C205.211 65.2 205.254 65.1573 205.254 65.072C205.254 65.072 205.297 65.072 205.382 65.072C205.553 65.1573 205.766 65.328 206.022 65.584C206.278 65.9253 206.449 66.096 206.534 66.096C206.705 66.096 206.79 66.096 206.79 66.096C207.473 66.1813 208.155 66.2667 208.838 66.352C209.521 66.5227 210.203 66.6507 210.886 66.736C210.971 66.736 211.099 66.7787 211.27 66.864C211.441 67.0347 211.654 67.12 211.91 67.12C212.593 67.2053 213.403 67.248 214.342 67.248C215.366 67.248 216.049 67.248 216.39 67.248L216.518 67.376ZM299.863 65.968C299.607 65.968 299.18 65.9253 298.583 65.84C298.071 65.84 297.772 65.7973 297.687 65.712C297.602 65.5413 297.687 65.3707 297.943 65.2C298.284 65.1147 298.284 65.0293 297.943 64.944C297.602 64.8587 297.346 64.688 297.175 64.432C297.004 64.2613 296.706 64.176 296.279 64.176C295.852 64.176 295.255 64.3467 294.487 64.688C293.719 65.0293 293.207 65.1573 292.951 65.072C291.159 64.6453 289.41 64.048 287.703 63.28C286.082 62.5973 284.546 61.7013 283.095 60.592C282.924 60.4213 282.796 60.1227 282.711 59.696C282.626 59.2693 282.327 59.0133 281.815 58.928C281.218 58.8427 280.748 58.544 280.407 58.032C280.066 57.4347 279.639 56.9227 279.127 56.496C278.53 55.984 278.103 55.3867 277.847 54.704C277.676 53.936 277.506 53.2107 277.335 52.528C276.994 51.5893 276.78 50.736 276.695 49.968C276.695 49.2 276.695 48.304 276.695 47.28C276.695 46.5973 276.823 45.36 277.079 43.568C277.42 41.776 277.591 40.5387 277.591 39.856V39.728C278.188 38.3627 278.53 37.424 278.615 36.912C278.786 36.4 278.914 36.016 278.999 35.76C279.084 35.4187 279.34 34.9493 279.767 34.352C280.194 33.7547 280.962 32.688 282.071 31.152C282.583 30.4693 282.882 30.0853 282.967 30C283.138 29.9147 283.394 29.7013 283.735 29.36C284.247 28.6773 284.844 27.8667 285.527 26.928C286.21 25.9893 286.85 25.264 287.447 24.752C288.386 23.984 289.495 23.1733 290.775 22.32C292.055 21.3813 293.207 20.6133 294.231 20.016C294.572 19.76 294.871 19.632 295.127 19.632C295.383 19.5467 295.682 19.4613 296.023 19.376C296.279 19.2907 296.834 18.992 297.687 18.48C298.54 17.8827 299.394 17.328 300.247 16.816C301.186 16.304 301.74 16.0907 301.911 16.176C301.996 16.176 302.039 16.2187 302.039 16.304C302.124 16.304 302.21 16.304 302.295 16.304C302.466 16.304 302.679 16.2187 302.935 16.048C303.191 15.792 303.404 15.6213 303.575 15.536C304.514 14.9387 305.495 14.64 306.519 14.64C307.287 14.5547 307.927 14.4267 308.439 14.256C308.951 14.0853 309.506 13.9147 310.103 13.744C310.615 13.5733 311.468 13.36 312.663 13.104C313.858 12.848 314.967 12.72 315.991 12.72C316.588 12.72 317.058 12.8053 317.399 12.976C317.911 13.232 318.252 13.36 318.423 13.36C318.594 13.36 318.764 13.36 318.935 13.36C319.106 13.2747 319.319 13.1893 319.575 13.104C319.831 13.0187 320.13 12.976 320.471 12.976C320.642 12.976 320.77 13.0613 320.855 13.232C321.026 13.3173 321.282 13.5307 321.623 13.872C321.708 13.9573 321.879 14 322.135 14C322.306 14 322.476 13.9573 322.647 13.872C322.903 13.7867 323.116 13.744 323.287 13.744C323.714 13.744 324.012 13.9147 324.183 14.256C324.439 14.512 324.738 14.6827 325.079 14.768C325.506 14.8533 325.89 14.9387 326.231 15.024C326.572 15.024 326.914 15.1093 327.255 15.28C328.023 15.6213 328.834 16.2187 329.687 17.072C330.626 17.84 331.18 18.6933 331.351 19.632C331.351 19.8027 331.351 20.0587 331.351 20.4C331.351 20.656 331.18 20.656 330.839 20.4C329.644 19.2907 328.492 18.352 327.383 17.584C326.359 16.7307 324.951 16.304 323.159 16.304C321.538 16.304 319.532 16.4747 317.143 16.816C314.754 17.1573 312.45 17.6693 310.231 18.352C308.012 18.9493 306.263 19.6747 304.983 20.528C304.556 20.8693 304.258 21.1253 304.087 21.296C303.916 21.3813 303.49 21.424 302.807 21.424C301.954 21.424 301.1 21.7653 300.247 22.448C299.479 23.0453 298.711 23.5573 297.943 23.984C297.602 24.1547 297.175 24.2827 296.663 24.368C296.151 24.4533 295.767 24.624 295.511 24.88C295.34 25.0507 295.255 25.1787 295.255 25.264C295.255 25.3493 295.17 25.4773 294.999 25.648L294.871 25.776C293.847 26.8 292.823 27.568 291.799 28.08C290.86 28.592 289.794 29.3173 288.599 30.256C288.514 30.256 288.258 30.5973 287.831 31.28C287.404 31.8773 286.978 32.4747 286.551 33.072C286.124 33.6693 285.826 34.0107 285.655 34.096C284.972 34.2667 284.375 34.736 283.863 35.504C283.351 36.1867 282.967 36.784 282.711 37.296C282.455 37.6373 282.114 38.064 281.687 38.576C281.346 39.0027 281.047 39.4293 280.791 39.856C280.194 40.9653 279.767 42.16 279.511 43.44C279.255 44.72 279.127 46.0427 279.127 47.408C279.127 48.0053 279.127 48.6453 279.127 49.328C279.212 50.0107 279.298 50.6933 279.383 51.376C279.468 51.9733 279.511 52.4 279.511 52.656C279.511 52.8267 279.724 53.1253 280.151 53.552C280.578 54.064 280.919 54.6187 281.175 55.216C281.516 55.728 281.9 56.1973 282.327 56.624C282.412 56.7093 282.455 56.8373 282.455 57.008C282.455 57.6907 282.54 58.0747 282.711 58.16C282.967 58.2453 283.223 58.288 283.479 58.288C283.735 58.288 283.948 58.5867 284.119 59.184L284.375 59.44C285.399 59.6107 286.338 59.952 287.191 60.464C288.044 60.8907 288.94 61.232 289.879 61.488C290.476 61.5733 291.074 61.7013 291.671 61.872C292.354 61.9573 292.951 62.0853 293.463 62.256C293.719 62.3413 293.932 62.4693 294.103 62.64C294.359 62.896 294.53 63.0667 294.615 63.152H294.743C294.914 63.152 295.042 63.0667 295.127 62.896C295.298 62.7253 295.511 62.64 295.767 62.64C296.023 62.64 296.364 62.5973 296.791 62.512C297.218 62.512 297.516 62.5973 297.687 62.768C298.114 63.024 298.498 63.152 298.839 63.152C299.18 63.152 299.522 63.0667 299.863 62.896C300.034 62.8107 300.46 62.768 301.143 62.768C301.911 62.768 302.338 62.768 302.423 62.768C302.594 62.8533 302.807 62.9813 303.063 63.152C303.404 63.3227 303.703 63.3653 303.959 63.28C304.13 63.1093 304.172 62.9813 304.087 62.896C304.087 62.8107 304.258 62.7253 304.599 62.64L307.031 62.384C307.202 62.2987 307.372 62.256 307.543 62.256C308.311 62.1707 309.207 62 310.231 61.744C311.34 61.4027 312.194 61.1893 312.791 61.104C313.815 61.104 314.882 60.7627 315.991 60.08C317.271 59.3973 318.594 58.8 319.959 58.288C321.324 57.6907 322.69 57.136 324.055 56.624C324.994 56.2827 325.804 55.856 326.487 55.344C327.17 54.832 327.852 54.32 328.535 53.808C329.218 53.3813 329.858 52.9547 330.455 52.528C331.138 52.1013 331.735 51.6747 332.247 51.248C332.503 50.992 332.716 50.6933 332.887 50.352C333.058 50.0107 333.314 49.7547 333.655 49.584C335.874 48.304 337.666 46.8533 339.031 45.232C340.396 43.6107 342.018 41.9893 343.895 40.368C344.322 39.9413 344.62 39.6 344.791 39.344C344.962 39.088 345.175 38.7467 345.431 38.32C346.028 37.3813 346.796 36.4427 347.735 35.504C348.674 34.48 349.442 33.2853 350.039 31.92C350.295 31.3227 350.679 30.9387 351.191 30.768C351.703 30.512 352.002 30.1707 352.087 29.744C352.087 29.744 351.959 29.4027 351.703 28.72C351.532 27.952 351.66 27.44 352.087 27.184C352.514 26.928 352.727 26.6293 352.727 26.288C352.727 25.776 352.471 25.3067 351.959 24.88C351.532 24.368 351.319 23.9413 351.319 23.6C351.404 21.3813 351.234 19.632 350.807 18.352C350.466 16.9867 349.826 15.7493 348.887 14.64C347.948 13.5307 346.754 12.2933 345.303 10.928C343.682 9.392 341.463 8.28266 338.647 7.6C335.916 6.832 333.442 6.32 331.223 6.064C330.711 6.064 330.156 5.936 329.559 5.68C329.047 5.424 328.535 5.38133 328.023 5.552C327.852 5.63733 327.426 5.68 326.743 5.68C326.146 5.68 325.463 5.68 324.695 5.68C323.927 5.59466 323.458 5.50933 323.287 5.424C322.434 5.25333 321.666 5.296 320.983 5.552C320.3 5.72267 319.575 5.808 318.807 5.808C318.295 5.808 317.911 5.76533 317.655 5.68C317.399 5.59466 317.143 5.552 316.887 5.552C316.546 5.552 316.247 5.63733 315.991 5.808C315.82 5.89333 315.522 6.02133 315.095 6.192C312.706 7.04533 310.146 7.68533 307.415 8.112C307.33 8.112 306.69 8.28266 305.495 8.624C304.3 8.96533 303.106 9.34933 301.911 9.776C300.716 10.1173 299.991 10.3307 299.735 10.416C298.882 10.7573 298.071 11.056 297.303 11.312C296.535 11.568 295.81 11.952 295.127 12.464C294.956 12.5493 294.743 12.6773 294.487 12.848C294.231 13.0187 293.975 13.104 293.719 13.104C293.122 13.1893 292.61 13.4027 292.183 13.744C291.842 14 291.458 14.256 291.031 14.512C290.69 14.768 290.22 14.9387 289.623 15.024C289.111 15.1093 288.684 15.28 288.343 15.536C288.172 15.6213 288.087 15.8773 288.087 16.304C288.172 16.7307 288.087 16.9867 287.831 17.072C287.49 17.2427 287.063 17.3707 286.551 17.456C286.124 17.456 285.698 17.4987 285.271 17.584C284.674 17.6693 284.076 18.096 283.479 18.864C282.882 19.5467 282.37 20.1013 281.943 20.528C281.431 20.8693 280.748 21.5093 279.895 22.448C279.042 23.3013 278.359 23.8987 277.847 24.24C277.42 24.496 276.994 24.6667 276.567 24.752C276.14 24.8373 275.884 25.264 275.799 26.032L274.135 27.568C273.538 27.6533 273.154 27.9093 272.983 28.336C272.812 28.6773 272.514 29.0187 272.087 29.36C271.404 29.872 270.978 30.256 270.807 30.512C270.722 30.6827 270.338 31.0667 269.655 31.664C269.058 32.2613 268.503 32.56 267.991 32.56C267.735 32.56 267.607 32.432 267.607 32.176C267.607 31.5787 267.991 30.7253 268.759 29.616C269.527 29.1893 270.082 28.592 270.423 27.824C270.764 27.056 271.276 26.416 271.959 25.904C272.642 25.4773 273.154 25.008 273.495 24.496C273.922 23.984 274.348 23.4293 274.775 22.832C274.946 22.6613 275.074 22.576 275.159 22.576C275.842 22.064 276.396 21.5093 276.823 20.912C277.335 20.2293 277.975 19.7173 278.743 19.376C279.511 19.0347 280.151 18.608 280.663 18.096C281.175 17.4987 281.73 16.9867 282.327 16.56C286.508 13.6587 291.074 11.056 296.023 8.752C300.972 6.36266 305.922 4.86933 310.871 4.272C311.554 4.18666 312.151 4.10133 312.663 4.016C313.26 3.84533 313.858 3.71733 314.455 3.632C314.711 3.54666 315.266 3.46133 316.119 3.376C317.058 3.20533 317.954 3.07733 318.807 2.992C319.746 2.82133 320.3 2.77866 320.471 2.864C320.727 2.864 320.983 2.90666 321.239 2.992C321.495 2.992 321.708 2.992 321.879 2.992C322.476 2.992 322.946 2.94933 323.287 2.864C323.714 2.77866 324.226 2.736 324.823 2.736C328.492 2.82133 331.948 3.29066 335.191 4.144C338.434 4.99733 341.591 6.40533 344.663 8.368C345.09 8.70933 345.431 9.05066 345.687 9.392C345.943 9.648 346.327 9.86133 346.839 10.032C347.266 10.288 347.692 10.672 348.119 11.184C348.716 12.0373 349.399 12.8907 350.167 13.744C350.935 14.512 351.575 15.3653 352.087 16.304C353.026 18.0107 353.708 19.8027 354.135 21.68C354.647 23.5573 354.903 25.4347 354.903 27.312C354.903 33.8827 352.727 39.472 348.375 44.08C348.034 44.4213 347.479 44.6347 346.711 44.72C346.028 44.72 345.602 44.8053 345.431 44.976C345.346 45.0613 345.474 45.3173 345.815 45.744C346.156 46.1707 346.242 46.4693 346.071 46.64C344.876 47.8347 343.639 48.944 342.359 49.968C342.274 50.0533 342.188 49.9253 342.103 49.584C342.018 49.1573 341.847 48.9013 341.591 48.816C341.335 48.6453 341.164 48.9013 341.079 49.584C341.079 50.2667 340.994 50.6933 340.823 50.864L339.671 49.584C339.5 49.6693 339.5 50.096 339.671 50.864C339.842 51.632 339.842 52.1013 339.671 52.272C337.794 53.6373 335.874 54.9173 333.911 56.112C331.948 57.3067 329.858 58.416 327.639 59.44C323.202 61.5733 318.551 63.1947 313.687 64.304C308.908 65.4987 304.3 66.0533 299.863 65.968ZM370.779 62.512C370.694 62.512 370.566 62.4267 370.395 62.256C370.224 62.1707 370.096 62.128 370.011 62.128C369.67 62.2133 369.371 62.256 369.115 62.256C368.859 62.256 368.603 62.256 368.347 62.256C368.262 62.256 368.176 62.2133 368.091 62.128C368.091 62.0427 368.048 62 367.963 62C367.878 62 367.835 62 367.835 62C367.92 62.0853 367.92 62.128 367.835 62.128C367.835 62.128 367.75 62.0853 367.579 62C367.408 61.9147 367.28 61.872 367.195 61.872L367.067 61.744C366.896 61.744 366.768 61.7013 366.683 61.616C366.683 61.5307 366.64 61.488 366.555 61.488L366.427 61.616L366.299 61.488C366.128 61.4027 365.872 61.3173 365.531 61.232C365.275 61.0613 365.062 60.9333 364.891 60.848C364.72 60.848 364.507 60.72 364.251 60.464H363.995C363.824 60.208 363.526 60.0373 363.099 59.952C363.099 59.8667 363.056 59.7813 362.971 59.696H362.843C362.672 59.44 362.544 59.3547 362.459 59.44C362.374 59.2693 362.246 59.1413 362.075 59.056C361.99 58.8853 361.862 58.7573 361.691 58.672C361.691 58.3307 361.606 58.16 361.435 58.16C361.435 57.9893 361.264 57.7333 360.923 57.392C360.667 57.0507 360.496 56.752 360.411 56.496L360.283 56.368C359.942 56.0267 359.686 55.472 359.515 54.704C359.43 54.3627 359.344 54.2347 359.259 54.32C359.259 54.4053 359.216 54.192 359.131 53.68C359.131 53.5947 359.131 53.4667 359.131 53.296C359.216 53.04 359.216 52.8693 359.131 52.784C359.131 52.6987 359.088 52.656 359.003 52.656C359.003 52.5707 359.003 52.4853 359.003 52.4C358.918 52.3147 358.875 52.272 358.875 52.272C358.96 52.1867 359.003 52.144 359.003 52.144C359.003 51.9733 358.96 51.888 358.875 51.888C358.875 51.8027 358.875 51.7173 358.875 51.632V51.376C358.875 50.9493 358.96 50.6507 359.131 50.48C359.131 50.3093 359.174 50.1813 359.259 50.096C359.344 50.0107 359.387 49.9253 359.387 49.84C359.387 49.6693 359.472 49.584 359.643 49.584C359.814 49.584 359.899 49.5413 359.899 49.456C359.899 49.2853 359.942 49.2 360.027 49.2C360.198 49.1147 360.326 49.0293 360.411 48.944C360.411 48.8587 360.454 48.7733 360.539 48.688C360.71 48.6027 360.795 48.5173 360.795 48.432C361.222 48.176 361.691 48.048 362.203 48.048C363.227 48.048 363.739 48.304 363.739 48.816C363.739 48.9867 363.483 49.2853 362.971 49.712C362.886 49.968 362.843 50.1387 362.843 50.224C362.928 50.224 362.886 50.3093 362.715 50.48C362.8 50.736 362.843 51.0773 362.843 51.504C362.758 51.504 362.715 51.632 362.715 51.888C362.8 52.0587 362.843 52.144 362.843 52.144C362.843 52.2293 362.886 52.4853 362.971 52.912C363.142 53.3387 363.27 53.5947 363.355 53.68C363.355 53.68 363.44 53.8933 363.611 54.32C363.782 54.6613 363.867 54.8747 363.867 54.96V55.216C364.038 55.472 364.123 55.6427 364.123 55.728C364.208 55.728 364.55 55.8987 365.147 56.24C365.232 56.3253 365.403 56.368 365.659 56.368C366.086 56.624 366.384 56.8373 366.555 57.008C366.811 57.1787 367.408 57.3493 368.347 57.52C368.688 57.6053 368.816 57.6907 368.731 57.776C368.731 57.776 368.902 57.776 369.243 57.776C369.243 57.776 369.243 57.8187 369.243 57.904C369.243 57.904 369.286 57.904 369.371 57.904C369.542 57.8187 369.712 57.8187 369.883 57.904C370.054 57.904 370.224 57.8613 370.395 57.776H370.907C371.504 57.776 372.144 57.6907 372.827 57.52L374.747 57.008C375.344 56.9227 375.899 56.752 376.411 56.496C376.923 56.24 377.392 55.984 377.819 55.728C377.904 55.728 378.16 55.6 378.587 55.344C379.014 55.0027 379.526 54.6613 380.123 54.32C380.038 54.064 379.995 53.7227 379.995 53.296C379.995 53.04 380.123 52.912 380.379 52.912C380.635 52.8267 380.806 52.6987 380.891 52.528C380.635 52.3573 380.294 52.272 379.867 52.272C379.526 52.272 379.398 52.144 379.483 51.888C379.142 50.0107 378.63 48.304 377.947 46.768C377.35 45.232 376.624 43.5253 375.771 41.648C375.686 41.392 375.515 40.9653 375.259 40.368C375.003 39.7707 374.832 39.3013 374.747 38.96C374.747 38.8747 374.832 38.8747 375.003 38.96C375.174 38.96 375.216 38.9173 375.131 38.832C375.046 38.4053 374.96 37.9787 374.875 37.552C374.875 37.1253 374.832 36.7413 374.747 36.4C374.662 36.2293 374.747 36.1013 375.003 36.016C375.259 35.9307 375.344 35.8027 375.259 35.632C375.174 35.4613 375.003 35.4187 374.747 35.504C374.491 35.5893 374.32 35.5467 374.235 35.376L373.851 33.84C373.851 33.4133 373.766 33.1573 373.595 33.072C373.51 32.9867 373.595 32.816 373.851 32.56C374.022 32.4747 374.107 32.3467 374.107 32.176C374.107 31.92 374.15 31.7493 374.235 31.664C374.662 31.408 374.832 31.1093 374.747 30.768C374.662 30.3413 374.747 29.9573 375.003 29.616C375.259 29.2747 375.472 28.976 375.643 28.72C375.814 28.3787 376.07 28.1653 376.411 28.08C376.667 27.9093 376.752 27.952 376.667 28.208C376.582 28.464 376.582 28.592 376.667 28.592C377.094 28.592 377.264 28.3787 377.179 27.952C377.094 27.5253 377.222 27.1413 377.563 26.8C378.16 26.288 379.056 25.8613 380.251 25.52C381.446 25.1787 382.342 24.9653 382.939 24.88C383.11 24.88 383.238 24.88 383.323 24.88C383.494 24.7947 383.622 24.752 383.707 24.752C384.134 24.752 384.56 24.7947 384.987 24.88C385.499 24.9653 385.968 25.0507 386.395 25.136C386.736 25.2213 387.248 25.5627 387.931 26.16C388.614 26.672 389.126 26.8 389.467 26.544C390.235 25.8613 391.046 25.264 391.899 24.752C392.838 24.24 393.435 24.0267 393.691 24.112C394.374 24.1973 394.971 24.4107 395.483 24.752C395.995 25.008 396.166 25.8613 395.995 27.312C395.91 27.824 395.696 28.2507 395.355 28.592C395.099 28.848 394.843 29.1893 394.587 29.616L393.691 30.896C393.35 31.4933 392.923 32.0907 392.411 32.688C391.984 33.2853 391.6 33.6693 391.259 33.84C390.918 34.0107 390.576 34.3093 390.235 34.736C389.979 35.0773 389.638 35.4187 389.211 35.76C388.784 36.1013 388.315 36.3573 387.803 36.528C387.376 36.6133 387.078 36.6987 386.907 36.784C386.651 36.8693 386.267 36.912 385.755 36.912C385.328 36.8267 385.2 36.656 385.371 36.4C385.542 36.3147 385.584 36.2293 385.499 36.144C385.414 35.9733 385.371 35.8453 385.371 35.76C385.371 35.5893 385.456 35.4613 385.627 35.376C385.883 35.2907 386.054 35.1627 386.139 34.992C386.224 34.9067 386.438 34.608 386.779 34.096C387.206 33.584 387.376 33.2853 387.291 33.2C387.291 32.944 387.376 32.7307 387.547 32.56C387.547 32.3893 387.547 32.2613 387.547 32.176C387.547 32.0053 387.632 31.8773 387.803 31.792C388.144 31.7067 388.315 31.5787 388.315 31.408V29.872C388.315 29.5307 388.272 29.1893 388.187 28.848C388.187 28.5067 388.102 28.208 387.931 27.952C387.248 27.0987 386.139 26.672 384.603 26.672C383.494 26.672 382.427 26.928 381.403 27.44C380.294 27.952 379.355 28.8053 378.587 30C377.99 30.8533 377.691 31.7493 377.691 32.688C377.691 33.3707 377.819 34.0533 378.075 34.736C378.416 35.4187 378.715 36.0587 378.971 36.656C379.227 37.2533 379.568 37.9787 379.995 38.832C380.507 39.6853 380.891 40.368 381.147 40.88C381.574 41.5627 382.043 42.3733 382.555 43.312C383.067 44.1653 383.451 44.976 383.707 45.744C383.792 45.8293 383.707 45.9147 383.451 46C383.28 46 383.238 46.0853 383.323 46.256C383.408 46.4267 383.536 46.512 383.707 46.512C383.878 46.512 384.006 46.5973 384.091 46.768C384.262 47.024 384.262 47.2373 384.091 47.408C384.006 47.5787 384.006 47.8347 384.091 48.176C384.091 48.2613 384.176 48.3467 384.347 48.432C384.518 48.5173 384.603 48.6027 384.603 48.688C385.03 49.7973 385.243 50.6933 385.243 51.376C386.011 50.9493 386.864 50.4373 387.803 49.84C388.742 49.2427 389.254 48.688 389.339 48.176C389.424 48.0053 389.552 47.9627 389.723 48.048C389.979 48.048 390.107 48.1333 390.107 48.304C390.022 48.9013 389.296 49.712 387.931 50.736C386.651 51.76 385.67 52.4853 384.987 52.912C385.072 52.9973 385.03 53.2107 384.859 53.552C384.688 53.8933 384.646 54.1493 384.731 54.32C384.731 54.4053 384.688 54.5333 384.603 54.704C384.518 54.7893 384.432 54.9173 384.347 55.088C384.347 55.4293 384.262 55.6853 384.091 55.856V56.112L383.707 56.368C383.622 56.4533 383.494 56.6667 383.323 57.008C383.238 57.264 383.11 57.4773 382.939 57.648H382.555C382.384 57.8187 382.299 58.032 382.299 58.288C382.128 58.544 381.744 58.8427 381.147 59.184C380.55 59.44 380.166 59.696 379.995 59.952C379.995 59.952 379.952 59.952 379.867 59.952C379.782 59.952 379.654 60.0373 379.483 60.208H379.099C379.014 60.208 378.928 60.2933 378.843 60.464C378.758 60.5493 378.672 60.6347 378.587 60.72C378.331 60.72 378.203 60.8053 378.203 60.976C377.862 60.976 377.606 61.0187 377.435 61.104L376.155 61.36C375.814 61.7013 375.515 61.872 375.259 61.872L375.131 61.744C374.96 61.9147 374.832 62 374.747 62H374.235C374.15 62 374.064 62.0427 373.979 62.128C373.894 62.2133 373.808 62.256 373.723 62.256H373.467C373.382 62.256 373.296 62.256 373.211 62.256C373.211 62.3413 373.126 62.384 372.955 62.384C372.699 62.384 372.315 62.384 371.803 62.384C371.376 62.384 371.035 62.4267 370.779 62.512ZM369.499 61.36C369.499 61.36 369.584 61.36 369.755 61.36C370.011 61.2747 370.182 61.232 370.267 61.232C370.694 61.232 371.078 61.2747 371.419 61.36C371.76 61.36 372.102 61.36 372.443 61.36C372.614 61.36 372.699 61.2747 372.699 61.104H372.955C373.211 60.848 373.339 60.8053 373.339 60.976C373.424 61.1467 373.552 61.1467 373.723 60.976C373.894 60.976 373.979 60.9333 373.979 60.848L374.491 60.592C374.576 60.592 374.619 60.592 374.619 60.592C374.619 60.5067 374.662 60.464 374.747 60.464H375.003C375.174 60.464 375.344 60.3787 375.515 60.208C375.686 60.0373 375.771 59.952 375.771 59.952C375.771 59.952 375.899 59.824 376.155 59.568C376.155 59.568 376.198 59.568 376.283 59.568C376.368 59.4827 376.454 59.44 376.539 59.44C376.71 59.2693 376.88 59.184 377.051 59.184C377.051 59.0987 377.136 59.0133 377.307 58.928C377.478 58.7573 377.563 58.672 377.563 58.672C377.648 58.5867 377.734 58.544 377.819 58.544C377.99 58.4587 378.075 58.3733 378.075 58.288C378.246 58.288 378.587 57.9893 379.099 57.392C379.611 56.7947 379.952 56.0693 380.123 55.216C380.123 55.0453 379.867 55.1733 379.355 55.6C378.843 55.9413 378.587 56.112 378.587 56.112C378.331 56.1973 378.075 56.368 377.819 56.624C377.563 56.7947 377.35 56.88 377.179 56.88C377.094 56.88 376.966 56.9653 376.795 57.136C376.71 57.2213 376.624 57.264 376.539 57.264C376.454 57.264 376.411 57.3067 376.411 57.392C376.411 57.392 376.326 57.3493 376.155 57.264C376.07 57.4347 375.814 57.6053 375.387 57.776C374.96 57.9467 374.662 58.032 374.491 58.032H374.107L373.979 58.16C373.979 58.16 373.936 58.2027 373.851 58.288C373.766 58.288 373.68 58.288 373.595 58.288L372.699 58.416H372.571C372.486 58.416 372.4 58.4587 372.315 58.544C371.974 58.544 371.59 58.5867 371.163 58.672C370.736 58.7573 370.48 58.8 370.395 58.8H370.267C370.267 58.7147 370.224 58.672 370.139 58.672V58.8H369.499C369.243 58.8 368.944 58.7573 368.603 58.672C368.347 58.5013 368.134 58.416 367.963 58.416C367.878 58.416 367.835 58.4587 367.835 58.544C367.835 58.544 367.792 58.544 367.707 58.544H367.451C367.366 58.544 367.323 58.5013 367.323 58.416H366.683C366.683 58.16 366.598 58.1173 366.427 58.288H366.299C365.958 58.288 365.659 58.16 365.403 57.904C365.232 57.648 364.934 57.52 364.507 57.52L364.123 57.136C364.123 57.2213 364.08 57.3067 363.995 57.392C363.995 57.392 363.995 57.4347 363.995 57.52C363.995 57.52 364.038 57.6053 364.123 57.776C364.294 57.8613 364.379 57.9467 364.379 58.032L364.635 58.544L365.147 59.184L365.403 59.44C365.488 59.5253 365.531 59.568 365.531 59.568C365.616 59.568 365.702 59.6533 365.787 59.824C365.958 59.824 366.043 59.952 366.043 60.208C367.494 60.976 368.646 61.36 369.499 61.36Z" fill="black"/>
</svg>
